# xmcd
#
# Track frame offsets: 
#        150
#        11865
#        23270
#        32890
#        46235
#        59625
#        73930
#        82875
#        95270
#        106885
#        122480
#        132970
#        148000
#        160435
#        172975
#        184625
#        196520
#        211255
#        221205
#        233070
#
# Disc length: 3298 seconds
#
# Revision: 0
# Processed by: cddbd v1.5.2PL0 Copyright (c) Steve Scherf et al.
# Submitted via: ExactAudioCopy v0.95b4
#
DISCID=100ce014
DTITLE=Marty Robbins - A Lonely Country Road
DYEAR=1900
DGENRE=Country
TTITLE0=The Story Of My Life
TTITLE1=A White Sport Coat And A Pink Carnation
TTITLE2=Where D'Ja Go?
TTITLE3=Most Of The Time
TTITLE4=The Letter Edged In Black
TTITLE5=Have I Told You Lately That I Love You
TTITLE6=Moanin' The Blues
TTITLE7=I'm So Lonesome I Could Cry
TTITLE8=Lovesick Blues
TTITLE9=The Dream Of The Miner's Child
TTITLE10=I Hang My Head And Cry
TTITLE11=Rose Of Old Pawnee
TTITLE12=You Don't Owe Me A Thing
TTITLE13=Mister Teardrop
TTITLE14=It Looks Like I'm Just In Your Way
TTITLE15=Daddy Loves You
TTITLE16=Tennessee Toddy
TTITLE17=Mean Mama Blues
TTITLE18=That's All Right
TTITLE19=Respectfully, Miss Brooks
EXTD=
EXTT0=
EXTT1=
EXTT2=
EXTT3=
EXTT4=
EXTT5=
EXTT6=
EXTT7=
EXTT8=
EXTT9=
EXTT10=
EXTT11=
EXTT12=
EXTT13=
EXTT14=
EXTT15=
EXTT16=
EXTT17=
EXTT18=
EXTT19=
PLAYORDER=
